PathFileType	4	(X/Y/Z)	0_1_33_p1_0-333.trc
DataRate	CameraRate	NumFrames	NumMarkers	Units	OrigDataRate	OrigDataStartFrame	OrigNumFrames
60	60	4	27	m	60	0	333
Frame#	Time	RHip			RKnee			RAnkle			RBigToe			RSmallToe			RHeel			LHip			LKnee			LAnkle			LBigToe			LSmallToe			LHeel			Neck			Head			Nose			RShoulder			RElbow			RWrist			RThumb			RIndex			RPinky			LShoulder			LElbow			LWrist			LThumb			LIndex			LPinky		
		X1	Y1	Z1	X2	Y2	Z2	X3	Y3	Z3	X4	Y4	Z4	X5	Y5	Z5	X6	Y6	Z6	X7	Y7	Z7	X8	Y8	Z8	X9	Y9	Z9	X10	Y10	Z10	X11	Y11	Z11	X12	Y12	Z12	X13	Y13	Z13	X14	Y14	Z14	X15	Y15	Z15	X16	Y16	Z16	X17	Y17	Z17	X18	Y18	Z18	X19	Y19	Z19	X20	Y20	Z20	X21	Y21	Z21	X22	Y22	Z22	X23	Y23	Z23	X24	Y24	Z24	X25	Y25	Z25	X26	Y26	Z26	X27	Y27	Z27
1	0.0166666666666666	0.12069337651289705	0.2054621505889841	0.04517475340261793	0.13652585483028307	0.1736909515722631	-0.3487321382075664	0.16381619057478253	0.201124239960027	-0.7452015172038013	0.18594966851760858	0.06958832872628007	-0.7880114524496608	0.11062894776423482	0.0953516102460315	-0.7934208559994007	0.176616855503069	0.2583757971302467	-0.822540996243716	0.3408333658125995	0.18008984379132212	0.03710547255934138	0.34823132034390486	0.16889764174874003	-0.3513751439529724	0.3306272990508832	0.2637824254486063	-0.7769860897568887	0.316202047220319	0.08219324938475622	-0.8002178213284727	0.36236612797272416	0.09906472703219524	-0.7898492894952498	0.31597002417518866	0.296020947996731	-0.850154265718086	0.22492678561438786	0.2664948461517784	0.5462406737820359	0.2047020362715076	0.2574186093772393	0.7939666001335728	0.20119865699977307	0.16261796762989814	0.6775533817562758	0.07478004620012489	0.28957637396599745	0.4648929396424715	0.03369550823889046	0.215162393371446	0.21794144372184057	0.16031693582711323	0.07123725306788259	0.07847568788988338	0.2732693791041603	0.06250976351020512	0.029474058989975856	0.273227489263924	0.06311469307212389	0.016299408532622815	0.24215802596523148	0.07786872071243763	-0.009670807488724287	0.37813397627174616	0.2696259258306559	0.48019739028900504	0.43173417258734004	0.18529664199844137	0.22892947484722465	0.2877110078187028	0.06788998144918595	0.09219030466906131	0.24358573419437907	0.0411609914103252	0.048475514998244	0.23377091485195645	0.028004389437271432	0.021322007869355567	0.24749987516303062	0.06818349148979992	-0.004433342789477215
2	0.0333333333333333	0.12017467668481413	0.20509076228161172	0.03882674941437959	0.13781227835137758	0.17162135753569646	-0.3539865268673392	0.16357842059003858	0.2015444328387532	-0.7459344622479612	0.19171454855421144	0.07012810089648003	-0.7885895587167179	0.1122708816070542	0.08887328880991419	-0.791246171376684	0.17286059977730464	0.2500562784671219	-0.8149059201355379	0.3406143697575796	0.17962665416957233	0.03269498304958368	0.3478310772333263	0.16808528340051337	-0.3555109434982091	0.33034232188444373	0.2637720618165781	-0.7759087330378148	0.31278192314554043	0.0723155669838589	-0.7902031436524919	0.3617557169054654	0.09777406246445729	-0.7889782238099172	0.31641819141333316	0.2958101642503072	-0.8459257808824256	0.2248820656445047	0.2664895675646593	0.5462793945827435	0.20448805445691398	0.25671506813616896	0.7916841809774404	0.20118170096327662	0.16265739806764754	0.6775470763956623	0.07471430890136402	0.28962063896495727	0.464887057338958	0.031042391245957927	0.21616185935892723	0.21980312879540673	0.1600688278829551	0.07153587279869716	0.0804097312244616	0.27288741933791016	0.0625854623038758	0.029293489915713504	0.2735956629149893	0.062430605387554294	0.013739317224276576	0.23985562297050625	0.07218527050431353	-0.007478738504716235	0.37810800247784143	0.26959853965223163	0.4801785857661996	0.4317841632056253	0.18526758051953288	0.22896589103731088	0.28769585590732	0.06795660981014767	0.09225396251540212	0.24515487354286175	0.035139166363825504	0.049637771123994846	0.23774804061936403	0.03319558573091665	0.018675684773115084	0.24750143365629357	0.06882957146109261	-0.0006876230928948914
3	0.05	0.1198417426255303	0.20491923429744374	0.03485539016109398	0.13793663183627303	0.1710078679495814	-0.35667160153270394	0.16339445858798227	0.20199896363304112	-0.7464661271164316	0.19459727553216527	0.06913736743980607	-0.787931711602901	0.11320552149833386	0.08507717097207154	-0.7900045097598163	0.17049499918452415	0.24537734513297713	-0.8102781791806966	0.3404465315904982	0.17942717778970285	0.029543057680401604	0.3475411965653368	0.16789643330968645	-0.3572847767598285	0.33021159415572954	0.2638114529969537	-0.7752681493919555	0.3105137312597179	0.06567368610163747	-0.783999410028999	0.3608299006003827	0.09579121219039038	-0.7875374354692172	0.3172426627546768	0.29722647240805017	-0.845724320817694	0.22485429031030954	0.26648281625228404	0.5463069118764478	0.20436622957270534	0.25639034142215783	0.7906839274537958	0.20117208962348324	0.16268564562289592	0.6775428594730526	0.07469299222694403	0.2896057264828983	0.4651729199192501	0.029403598395802328	0.2168661959568508	0.22128360448991113	0.15991770978678965	0.07170273284196188	0.0815856121068333	0.2719657860790513	0.06279629808071405	0.029091796614122555	0.2733429277515899	0.06199747037537266	0.011633876477643572	0.23926864233601178	0.07083396043693349	-0.007384444824418342	0.37809287350975174	0.2695983579802359	0.48016010872175535	0.43181342571565345	0.18523183381110547	0.22899957295569254	0.2876866491123295	0.06803075699421611	0.09227623365940076	0.24602880833325969	0.03165052644257221	0.049728396943170376	0.2397005158865584	0.03758441773664135	0.016657179450498955	0.24744510633581995	0.06936350082288921	0.001887773661715833
4	0.0666666666666666	0.11975459277728494	0.2049767533649432	0.03373729918919632	0.13717789039143574	0.17169870652924646	-0.3560660125012401	0.16335077969201797	0.20234217829261172	-0.7462873603201173	0.19413325700643336	0.0656870208219476	-0.7853362098498547	0.11354501299104153	0.08414825659714203	-0.7897581419953592	0.16946583929868198	0.24524943898474014	-0.8091707671770358	0.3403549058589155	0.17947537846231443	0.028168907683287316	0.34744597472319805	0.16842884846181477	-0.35555181719148493	0.3301354851451497	0.2640624586847772	-0.7743813750164831	0.3091003134178064	0.06222120313269821	-0.781165553063092	0.3597591781945273	0.09350515804283889	-0.7858210502691882	0.31896130879959156	0.30117560799299686	-0.8498642051686272	0.22484310615236208	0.2664799411581604	0.5463174968774552	0.20434245497534503	0.25649702795536	0.7912504856915432	0.2011657766887231	0.16269975671921746	0.6775397791391574	0.07474027941585644	0.28947095958735103	0.46583681486183715	0.02884962786958655	0.21727997563518825	0.22244801369845313	0.15986378564273165	0.07172027418140074	0.08194366586241371	0.2706698735235963	0.06313461018787796	0.028907426279147524	0.272210967600521	0.06204387148107447	0.01042142655888627	0.24034288705121776	0.07349316882000208	-0.008856175139762116	0.3780925127016353	0.2696329572898777	0.4801348751942705	0.43181718213892584	0.1851874660653618	0.22902950325240784	0.2877108828271495	0.06807583679517958	0.0922985676446043	0.24620553096675826	0.030732647419382173	0.049104063037334236	0.2394677578466365	0.03957334700792214	0.016477608016114167	0.24740533432541334	0.06957936638964946	0.0027044416602124565
